<svg width="31" height="39" viewBox="0 0 31 39" fill="none" xmlns="http://www.w3.org/2000/svg">
<path fill-rule="evenodd" clip-rule="evenodd" d="M22.9042 11.2929C22.6554 10.5234 22.2922 9.80388 21.8394 9.1543H8.35975C7.90695 9.80388 7.54869 10.5234 7.29492 11.2929H22.9042Z" fill="#E30613"/>
<path fill-rule="evenodd" clip-rule="evenodd" d="M7.00614 12.5117C6.9315 12.9514 6.88672 13.4011 6.88672 13.8609C6.88672 18.4179 10.5639 22.1106 15.1019 22.1106C19.6398 22.1106 23.317 18.4179 23.317 13.8609C23.317 13.4011 23.2672 12.9514 23.1976 12.5117H7.00614Z" fill="#E30613"/>
<path fill-rule="evenodd" clip-rule="evenodd" d="M20.6499 7.78993C19.187 6.4408 17.2414 5.61133 15.1018 5.61133C12.9572 5.61133 11.0166 6.4408 9.55371 7.78993H20.6499Z" fill="#E30613"/>
<path fill-rule="evenodd" clip-rule="evenodd" d="M15.1617 26.6281C15.0871 26.7131 15.0075 26.798 14.9229 26.883C12.3802 29.4863 8.22039 29.5263 5.62797 26.9729C3.03555 24.4195 2.99574 20.2422 5.53841 17.6389C5.61802 17.5539 5.70261 17.474 5.7872 17.394L15.1617 26.6281Z" fill="#009FE3"/>
<path fill-rule="evenodd" clip-rule="evenodd" d="M15.0171 26.5978C15.0917 26.6828 15.1713 26.7727 15.2559 26.8527C17.7986 29.456 21.9584 29.496 24.5508 26.9426C27.1433 24.3893 27.1831 20.2119 24.6404 17.6086C24.5608 17.5237 24.4762 17.4437 24.3916 17.3638L15.0171 26.5978Z" fill="#009FE3"/>
<path d="M15.0868 39L14.7385 38.8701C14.4847 38.7751 8.52364 36.5016 4.58276 31.8946C0.542369 27.1726 0.0646861 25.2888 0.0149276 24.959L0 24.7941V3.22293L15.0171 0L30.1786 3.22293L30.1636 24.959C30.1089 25.2888 29.6362 27.1776 25.5908 31.8946C21.65 36.5016 15.6839 38.7751 15.4351 38.8701L15.0868 39ZM1.99034 24.6742C2.08488 24.954 2.75165 26.6929 6.09045 30.5954C9.17548 34.1981 13.7931 36.3117 15.0868 36.8614C16.3805 36.3167 20.9981 34.2031 24.0831 30.5954C27.3672 26.7578 28.0688 25.014 28.1833 24.6642V4.8419L15.0171 2.04369L1.99034 4.8419V24.6742Z" fill="#009FE3"/>
</svg>
